<svg width="33" height="33" viewBox="0 0 33 33" fill="none" xmlns="http://www.w3.org/2000/svg">
<g id="Component 46" filter="url(#filter0_d_1546_573)">
<circle id="Ellipse 106" cx="16.9697" cy="14.1513" r="6.9697" fill="white"/>
<path id="Vector" d="M18.7722 10.6665C18.0479 10.6665 17.4051 10.9428 16.9697 11.4178C16.5342 10.9428 15.8914 10.6665 15.1672 10.6665C14.5364 10.6672 13.9316 10.9098 13.4856 11.341C13.0395 11.7721 12.7886 12.3567 12.7878 12.9664C12.7878 15.4873 16.6023 17.5015 16.7645 17.5862C16.8276 17.619 16.8981 17.6362 16.9697 17.6362C17.0413 17.6362 17.1117 17.619 17.1748 17.5862C17.337 17.5015 21.1515 15.4873 21.1515 12.9664C21.1507 12.3567 20.8998 11.7721 20.4538 11.341C20.0077 10.9098 19.403 10.6672 18.7722 10.6665ZM18.5743 15.6274C18.0722 16.0393 17.5354 16.4099 16.9697 16.7356C16.4039 16.4099 15.8671 16.0393 15.3651 15.6274C14.5839 14.9796 13.653 13.9917 13.653 12.9664C13.653 12.5783 13.8126 12.206 14.0965 11.9315C14.3805 11.657 14.7656 11.5028 15.1672 11.5028C15.8088 11.5028 16.346 11.8304 16.5691 12.358C16.6016 12.4349 16.6571 12.5007 16.7284 12.5471C16.7997 12.5934 16.8837 12.6181 16.9697 12.6181C17.0556 12.6181 17.1396 12.5934 17.2109 12.5471C17.2823 12.5007 17.3377 12.4349 17.3702 12.358C17.5933 11.8304 18.1305 11.5028 18.7722 11.5028C19.1737 11.5028 19.5589 11.657 19.8428 11.9315C20.1268 12.206 20.2863 12.5783 20.2863 12.9664C20.2863 13.9917 19.3555 14.9796 18.5743 15.6274Z" fill="#717171"/>
</g>
<defs>
<filter id="filter0_d_1546_573" x="0.939394" y="0.908913" width="32.0606" height="32.0607" filterUnits="userSpaceOnUse" color-interpolation-filters="sRGB">
<feFlood flood-opacity="0" result="BackgroundImageFix"/>
<feColorMatrix in="SourceAlpha" type="matrix" values="0 0 0 0 0 0 0 0 0 0 0 0 0 0 0 0 0 0 127 0" result="hardAlpha"/>
<feOffset dy="2.78788"/>
<feGaussianBlur stdDeviation="4.5303"/>
<feComposite in2="hardAlpha" operator="out"/>
<feColorMatrix type="matrix" values="0 0 0 0 0 0 0 0 0 0.529412 0 0 0 0 0.32549 0 0 0 0.43 0"/>
<feBlend mode="normal" in2="BackgroundImageFix" result="effect1_dropShadow_1546_573"/>
<feBlend mode="normal" in="SourceGraphic" in2="effect1_dropShadow_1546_573" result="shape"/>
</filter>
</defs>
</svg>
